{"title":"Pain &amp; Gain 2013 READNFO TS XViD UNiQUE","uid":8768186,"size":1511549267,"categoryP":"video","categoryS":"movies","magnet":"?xt=urn:btih:42c2c877231d48e9bd1bd779a0c0a4f7765e5ede&amp;dn=Pain+%26amp%3B+Gain+2013+READNFO+TS+XViD+UNiQUE&amp;tr=udp%3A%2F%2Ftracker.openbittorrent.com%3A80&amp;tr=udp%3A%2F%2Fopen.demonii.com%3A1337&amp;tr=udp%3A%2F%2Ftracker.coppersurfer.tk%3A6969&amp;tr=udp%3A%2F%2Fexodus.desync.com%3A6969","seeders":1,"leechers":0,"uploader":"xxxlavalxxx","files":-1,"time":1375383331,"description":" &lt;a href=&quot;http://www.imdb.com/title/tt1980209/&quot; rel=&quot;nofollow&quot; target=&quot;_NEW&quot;&gt;http://www.imdb.com/title/tt1980209/&lt;/a&gt;\n\n\nA trio of bodybuilders in Florida get caught up in an extortion ring and a kidnapping scheme that goes terribly wrong. \n\n\n\nDirector:\n Michael Bay \n\nWriters:\n Christopher Markus (screenplay), Stephen McFeely (screenplay)\n\nStars:\n Mark Wahlberg, Dwayne Johnson, Anthony Mackie \n\nGenres:\n  Action |  Comedy |  Crime |  Drama |  Thriller \n\nCountry:\n USA \n\nLanguage:\n English \n\n\n\nFormat                                   : AVI\n Format/Info                              : Audio Video Interleave\n File size                                : 1.40 GiB\n Duration                                 : 2h 1mn\n Overall bit rate                         : 1 647 Kbps\n Writing application                      : VirtualDubMod 1.5.10.2 (build 2540/release)\n Writing library                          : VirtualDubMod build 2540/release\n\n Video\n ID                                       : 0\n Format                                   : MPEG-4 Visual\n Format profile                           : Advanced Simple@L5\n Format settings, BVOP                    : 2\n Format settings, QPel                    : No\n Format settings, GMC                     : No warppoints\n Format settings, Matrix                  : Default (H.263)\n Muxing mode                              : Packed bitstream\n Codec ID                                 : XVID\n Codec ID/Hint                            : XviD\n Duration                                 : 2h 1mn\n Bit rate                                 : 1 511 Kbps\n Width                                    : 720 pixels\n Height                                   : 304 pixels\n Display aspect ratio                     : 2.35:1\n Frame rate                               : 24.000 fps\n Color space                              : YUV\n Chroma subsampling                       : 4:2:0\n Bit depth                                : 8 bits\n Scan type                                : Progressive\n Compression mode                         : Lossy\n Bits/(Pixel*Frame)                       : 0.288\n Stream size                              : 1.28 GiB (92%)\n Writing library                          : XviD 64\n\n Audio\n ID                                       : 1\n Format                                   : MPEG Audio\n Format version                           : Version 1\n Format profile                           : Layer 3\n Mode                                     : Joint stereo\n Codec ID                                 : 55\n Codec ID/Hint                            : MP3\n Duration                                 : 2h 1mn\n Bit rate mode                            : Constant\n Bit rate                                 : 128 Kbps\n Channel(s)                               : 2 channels\n Sampling rate                            : 48.0 KHz\n Compression mode                         : Lossy\n Stream size                              : 111 MiB (8%)\n Alignment                                : Aligned on interleaves\n Interleave, duration                     : 42 ms (1.01 video frame)\n Interleave, preload duration             : 504 ms\n\n Source Used       Pain And Gain ReadInfo 2013 iT MD TELESYNC XviD-RAVERS /  MiLLENiUM               - Thanks\n\n\n\n\nscreens\n\n\n    &lt;a href=&quot;\thttp://addpix.net/viewer.php?file=49771682418831823690.jpg&quot; rel=&quot;nofollow&quot; target=&quot;_NEW&quot;&gt;\thttp://addpix.net/viewer.php?file=49771682418831823690.jpg&lt;/a&gt;\n    &lt;a href=&quot;\thttp://addpix.net/viewer.php?file=81642541384722716392.jpg&quot; rel=&quot;nofollow&quot; target=&quot;_NEW&quot;&gt;\thttp://addpix.net/viewer.php?file=81642541384722716392.jpg&lt;/a&gt;\n    &lt;a href=&quot;\thttp://addpix.net/viewer.php?file=44707564971738166075.jpg&quot; rel=&quot;nofollow&quot; target=&quot;_NEW&quot;&gt;\thttp://addpix.net/viewer.php?file=44707564971738166075.jpg&lt;/a&gt;\n    &lt;a href=&quot;\thttp://addpix.net/viewer.php?file=22498694784451708618.jpg&quot; rel=&quot;nofollow&quot; target=&quot;_NEW&quot;&gt;\thttp://addpix.net/viewer.php?file=22498694784451708618.jpg&lt;/a&gt;","torrent":{"xt":"urn:btih:42c2c877231d48e9bd1bd779a0c0a4f7765e5ede","amp;dn":"Pain+%26amp%3B+Gain+2013+READNFO+TS+XViD+UNiQUE","amp;tr":["udp%3A%2F%2Ftracker.openbittorrent.com%3A80","udp%3A%2F%2Fopen.demonii.com%3A1337","udp%3A%2F%2Ftracker.coppersurfer.tk%3A6969","udp%3A%2F%2Fexodus.desync.com%3A6969"],"infoHash":"42c2c877231d48e9bd1bd779a0c0a4f7765e5ede","infoHashBuffer":{"type":"Buffer","data":[66,194,200,119,35,29,72,233,189,27,215,121,160,192,164,247,118,94,94,222]},"announce":[],"urlList":[]}}